<svg xmlns="http://www.w3.org/2000/svg" xmlns:xlink="http://www.w3.org/1999/xlink" aria-hidden="true" overflow="hidden" style="position:absolute;width:0;height:0">
  <defs>
    <symbol id="icon-arrow" viewBox="0 0 36 32">
      <path fill="currentColor" d="M1.062 17.414c-0.362-0.362-0.586-0.862-0.586-1.414s0.224-1.052 0.586-1.414l12.728-12.728c0.364-0.377 0.874-0.611 1.439-0.611 1.105 0 2 0.895 2 2 0 0.565-0.234 1.074-0.61 1.438l-0.001 0.001-11.314 11.314 11.314 11.314c0.377 0.364 0.611 0.874 0.611 1.439 0 1.105-0.895 2-2 2-0.565 0-1.074-0.234-1.438-0.61l-0.001-0.001-12.73-12.728zM36 18h-33.524v-4h33.524v4z"></path>
    </symbol>
    <symbol id="icon-instagram" viewBox="0 0 32 32">
      <path d="M16 10.25c-0.020-0-0.043-0-0.066-0-3.176 0-5.75 2.574-5.75 5.75s2.574 5.75 5.75 5.75c0.023 0 0.047-0 0.070-0l-0.004 0c3.147-0.037 5.684-2.597 5.684-5.75s-2.537-5.712-5.68-5.75l-0.004-0zM16 20.25c-2.347 0-4.25-1.903-4.25-4.25s1.903-4.25 4.25-4.25c2.347 0 4.25 1.903 4.25 4.25v0c-0.007 2.344-1.906 4.243-4.249 4.25h-0.001zM21.5 3.75h-11.001c-3.728 0-6.75 3.022-6.75 6.75v0 11c0 3.728 3.022 6.75 6.75 6.75h11.002c3.728 0 6.75-3.022 6.75-6.75v0-11.001c0-3.728-3.022-6.75-6.75-6.75v0zM26.75 21.5c0 2.899-2.35 5.25-5.25 5.25v0h-11.001c-2.899 0-5.25-2.35-5.25-5.25v0-11.001c0-2.899 2.35-5.25 5.25-5.25v0h11.002c2.899 0 5.25 2.35 5.25 5.25v11.002zM23.75 9.5c0 0.69-0.559 1.25-1.25 1.25s-1.25-0.559-1.25-1.25v0c0-0.69 0.559-1.25 1.25-1.25s1.25 0.559 1.25 1.25v0z"></path>
    </symbol>
    <symbol id="icon-facebook" viewBox="0 0 32 32">
      <path d="M23.986 2.128c-1.181-0.133-2.549-0.208-3.936-0.208-0.040 0-0.079 0-0.119 0h0.006c-4.485 0-7.271 2.856-7.271 7.454v3.121h-3.768c-0.368 0-0.667 0.298-0.667 0.667v0 5.134c0 0.368 0.298 0.667 0.667 0.667v0h3.767v10.293c0 0.368 0.298 0.667 0.667 0.667v0h5.304c0.368 0 0.667-0.298 0.667-0.667v0-10.293h3.755c0 0 0 0 0 0 0.338 0 0.617-0.251 0.661-0.577l0-0.003 0.663-5.133c0.003-0.026 0.005-0.055 0.005-0.085 0-0.369-0.298-0.667-0.667-0.668h-4.418v-2.612c0-1.293 0.261-1.833 1.877-1.833h2.719c0.368 0 0.667-0.298 0.667-0.667v0-4.594c0-0 0-0 0-0 0-0.338-0.251-0.617-0.577-0.661l-0.003-0zM23.234 6.715l-2.053 0.002c-2.876 0-3.21 1.808-3.21 3.166v3.28c0 0.368 0.298 0.666 0.666 0.667h4.328l-0.492 3.8h-3.835c-0.368 0-0.667 0.298-0.667 0.667v0 10.29h-3.97v-10.291c0-0.368-0.298-0.667-0.667-0.667v0h-3.765v-3.8h3.765c0.368 0 0.667-0.298 0.667-0.667v0-3.789c0-3.832 2.22-6.12 5.938-6.12 1.345 0 2.56 0.073 3.296 0.137v3.324z"></path>
    </symbol>
    <symbol id="icon-phone" viewBox="0 0 32 32">
      <path d="M27.655 22.957l-0.174-0.216c-1.371-1.735-2.519-2.637-3.502-2.756-0.851-0.117-1.674 0.472-2.549 1.077l-0.934 0.584c-0.092 0.048-0.2 0.093-0.313 0.128l-0.014 0.004c-0.547 0.155-1.927 0.246-2.708-0.469-0.91-0.831-2.32-2.354-3.417-3.685-1.048-1.377-2.2-3.094-2.802-4.175-0.508-0.917-0.083-2.197 0.201-2.673 0.065-0.104 0.135-0.194 0.212-0.277l-0.001 0.001 0.824-0.761c0.012-0.012 0.018-0.027 0.028-0.037 0.008-0.008 0.021-0.005 0.030-0.012 0.744-0.628 1.513-1.275 1.619-2.105 0.123-0.976-0.483-2.296-1.858-4.029l-0.168-0.216c-0.851-1.090-2.138-2.74-3.986-2.469-0.726 0.109-1.375 0.357-2.045 0.777-0.007 0.004-0.011 0.011-0.016 0.015s-0.012 0.005-0.018 0.008l-0.931 0.692c-0.009 0.005-0.015 0.018-0.024 0.026-0.008 0.006-0.018 0.008-0.026 0.014-0.125 0.105-0.23 0.196-0.333 0.289l0.011-0.010c-0.946 0.842-2.993 3.289-1.597 7.814 0.901 2.923 2.76 6.334 5.388 9.883l-0.026 0.021 1.45 1.806 0.012-0.010c2.85 3.371 5.749 5.976 8.406 7.554 1.774 1.054 3.323 1.402 4.597 1.402 1.678 0 2.879-0.603 3.482-0.995l0.378-0.254c0.043-0.029 0.074-0.071 0.104-0.108l0.825-0.621c0.009-0.008 0.015-0.018 0.024-0.027 0.004-0.004 0.011-0.003 0.015-0.007 0.587-0.536 0.994-1.097 1.276-1.762 0.732-1.706-0.578-3.339-1.445-4.421zM28.12 26.958c-0.219 0.518-0.541 0.958-1.006 1.384l-1.227 0.923c-1.112 0.723-3.49 1.616-6.942-0.434-2.658-1.577-5.583-4.244-8.462-7.712l-0.779-0.984c-2.71-3.595-4.617-7.038-5.517-9.955-1.17-3.794 0.304-5.829 1.291-6.706 0.1-0.091 0.2-0.175 0.299-0.259l0.004-0.004 0.894-0.663c0.544-0.344 1.048-0.536 1.628-0.624 1.239-0.187 2.247 1.12 2.987 2.069l0.173 0.22c1.537 1.938 1.684 2.859 1.637 3.234-0.053 0.418-0.688 0.952-1.248 1.423l-0.079 0.066-0.006 0.009c-0.004 0.003-0.008 0.004-0.012 0.007l-0.852 0.788c-0.005 0.005-0.008 0.012-0.014 0.019s-0.015 0.009-0.021 0.015c-0.121 0.133-0.233 0.28-0.33 0.437l-0.007 0.013c-0.478 0.802-0.93 2.458-0.217 3.739 0.622 1.12 1.808 2.89 2.898 4.319 1.138 1.381 2.59 2.949 3.532 3.81 0.705 0.644 1.686 0.859 2.536 0.859 0.008 0 0.018 0 0.028 0 0.413 0 0.813-0.056 1.192-0.16l-0.032 0.007c0.166-0.047 0.338-0.117 0.516-0.203 0.011-0.005 0.015-0.015 0.027-0.021 0.005-0.002 0.013-0.002 0.018-0.005l0.99-0.619c0.032-0.021 0.053-0.050 0.080-0.076l0.011 0.014c0.61-0.423 1.304-0.919 1.739-0.846 0.385 0.046 1.259 0.417 2.798 2.36l0.178 0.222c0.749 0.935 1.775 2.215 1.297 3.333z"></path>
    </symbol>
    <symbol id="icon-why-1" viewBox="0 0 32 32">
      <path fill="var(--color2, #2b7fff)" d="M16.061 1.4c-1.05 0-2.031.478-2.867 1.261s-1.551 1.874-2.148 3.195c-.125.277-.244.564-.359.861a16.087 16.087 0 0 0-.927-.12 13.895 13.895 0 0 0-1.054-.066c-1.026-.024-1.964.08-2.786.329-1.096.332-2 .943-2.525 1.852s-.601 1.998-.341 3.113c.26 1.115.847 2.28 1.693 3.457.178.247.367.494.567.742-.196.242-.385.489-.566.741-.846 1.177-1.433 2.342-1.693 3.457s-.184 2.204.341 3.113c.525.909 1.429 1.52 2.525 1.852s2.398.407 3.841.263c.302-.03.611-.071.926-.12.112.291.231.579.359.863.596 1.321 1.312 2.412 2.148 3.195s1.817 1.261 2.867 1.261 2.031-.478 2.866-1.261 1.551-1.874 2.148-3.195c.128-.284.248-.572.359-.862.314.049.623.09.925.12 1.442.144 2.745.07 3.841-.263s2.001-.943 2.526-1.852c.525-.909.601-1.998.341-3.113s-.847-2.28-1.693-3.457c-.182-.252-.371-.5-.567-.741.196-.242.385-.489.567-.742.846-1.177 1.433-2.342 1.693-3.457s.184-2.204-.341-3.113c-.525-.909-1.429-1.52-2.525-1.852-.822-.249-1.76-.353-2.786-.329-.342.008-.694.03-1.055.066a16.8 16.8 0 0 0-.926.12c-.111-.29-.231-.577-.359-.861-.596-1.321-1.312-2.412-2.148-3.195s-1.817-1.261-2.866-1.261zm0 1.168c.7 0 1.387.308 2.068.946s1.331 1.603 1.882 2.823c.09.199.175.4.255.603a24.805 24.805 0 0 0-4.205 1.364 24.805 24.805 0 0 0-4.205-1.364c.083-.207.167-.409.255-.603.551-1.22 1.201-2.185 1.882-2.823s1.368-.946 2.068-.946zM8.337 7.696a12.707 12.707 0 0 1 1.309.062c.213.021.43.048.652.08a24.722 24.722 0 0 0-.921 4.324 24.81 24.81 0 0 0-3.284 2.96 13.294 13.294 0 0 1-.395-.524c-.781-1.087-1.292-2.133-1.504-3.041s-.135-1.657.215-2.264c.35-.607.96-1.047 1.853-1.318.586-.178 1.287-.273 2.077-.281zm15.448 0c.789.007 1.491.103 2.077.281.893.271 1.503.711 1.853 1.318s.427 1.355.215 2.264c-.212.909-.723 1.954-1.504 3.041-.128.177-.26.352-.395.524a24.81 24.81 0 0 0-3.284-2.96 24.72 24.72 0 0 0-.922-4.324c.221-.032.438-.059.651-.08a11.984 11.984 0 0 1 1.309-.062zm-3.12.353c.311.965.568 2.029.76 3.169a31.692 31.692 0 0 0-3.884-2.243 22.647 22.647 0 0 1 3.124-.926zm-9.208 0c.991.213 2.041.523 3.123.926a31.805 31.805 0 0 0-3.883 2.242 22.64 22.64 0 0 1 .76-3.168zm4.604 1.529c.95.419 1.915.906 2.877 1.462s1.867 1.147 2.705 1.761c.112 1.033.173 2.112.173 3.223s-.06 2.189-.172 3.222c-.838.614-1.743 1.205-2.705 1.761s-1.927 1.043-2.877 1.462c-.951-.419-1.916-.907-2.878-1.462s-1.866-1.147-2.704-1.76a29.94 29.94 0 0 1 0-6.446c.838-.614 1.743-1.205 2.705-1.761s1.926-1.043 2.877-1.462zm.079 1.757-3.344 2.064 3.344 2.064 3.344-2.064-3.344-2.064zm-6.923 2.446a31.648 31.648 0 0 0 0 4.484 22.675 22.675 0 0 1-2.364-2.242 22.675 22.675 0 0 1 2.364-2.242zm13.688 0c.89.736 1.683 1.49 2.363 2.242a22.76 22.76 0 0 1-2.363 2.242 31.611 31.611 0 0 0-.001-4.483zm-10.862.525v4.075l3.512 2.167v-4.075l-3.512-2.168zm8.191.002-3.511 2.167v4.073l3.511-2.167v-4.073zM6.091 16.923a24.74 24.74 0 0 0 3.284 2.96c.196 1.56.51 3.016.921 4.323-.221.032-.438.059-.65.08-1.331.133-2.493.053-3.386-.218s-1.502-.712-1.853-1.318c-.35-.607-.427-1.355-.215-2.264s.723-1.954 1.504-3.041c.128-.177.259-.352.395-.523zm19.939 0c.138.175.27.349.395.523.781 1.087 1.292 2.133 1.504 3.041s.135 1.657-.215 2.264c-.35.606-.96 1.047-1.853 1.318s-2.054.351-3.386.218a15.79 15.79 0 0 1-.65-.08c.412-1.308.725-2.764.921-4.324a24.794 24.794 0 0 0 3.283-2.959zm-4.605 3.905a22.655 22.655 0 0 1-.76 3.169 22.688 22.688 0 0 1-3.124-.926 32.057 32.057 0 0 0 3.884-2.242zm-10.727.001a32.168 32.168 0 0 0 3.883 2.242 22.635 22.635 0 0 1-3.123.926 22.503 22.503 0 0 1-.759-3.168zm5.398.053.043.026.042-.026h-.085zm-.035 2.861a24.725 24.725 0 0 0 4.206 1.364 14.57 14.57 0 0 1-.256.604c-.551 1.22-1.201 2.185-1.882 2.823s-1.368.946-2.068.946-1.387-.308-2.068-.946-1.331-1.603-1.882-2.823c-.09-.2-.175-.401-.256-.604a24.805 24.805 0 0 0 4.205-1.364z"/>
    </symbol>
    <symbol id="icon-why-2" viewBox="0 0 31 32">
      <path fill="var(--color2, #2b7fff)" d="M8.56 12.129H-.121a.472.472 0 0 0-.482.463v2.776c0 .256.216.463.482.463h.482v10.642c0 .256.216.463.482.463h6.752a.472.472 0 0 0 .482-.463V15.831h.482a.472.472 0 0 0 .482-.463v-2.776a.473.473 0 0 0-.482-.463zM3.255 20.92v-.925h2.894v-.925H3.255v-.925h3.858v6.015H3.255v-2.313h.965v-.925h-.965zm3.858-3.701h-4.34a.472.472 0 0 0-.482.463v6.94c0 .256.216.463.482.463h4.34v.925H1.326V15.831h5.787v1.388zm.965-2.314H.362v-1.851h7.716v1.851zm6.872-2.689V8.833a.48.48 0 0 0-.482-.476h-.482V5.975h.964v-.953H9.645v.953h3.376v2.382h-.482a.478.478 0 0 0-.482.476v3.383c-1.099.222-1.929 1.183-1.929 2.334v11.909a.48.48 0 0 0 .482.476h5.787a.478.478 0 0 0 .482-.476V14.55c0-1.15-.83-2.112-1.929-2.334zM13.021 9.31h.964v2.858h-.964V9.31zm-.482 3.811h1.929a1.44 1.44 0 0 1 1.447 1.429v.476h-4.823v-.476a1.44 1.44 0 0 1 1.447-1.429zm3.376 10.956h-4.823v-.953h1.929v-.953h-1.929v-6.193h4.823v8.098zm-4.823 1.906v-.953h4.823v.953h-4.823zm16.186-14.446H19.14a.46.46 0 0 0-.452.467v14.465a.46.46 0 0 0 .452.467h8.138a.46.46 0 0 0 .452-.467V12.004a.46.46 0 0 0-.452-.467zm-.452 14.465h-7.234V12.47h7.234v13.532z"/>
      <path fill="var(--color2, #2b7fff)" d="M6.631 21.013H5.425v.592h1.206v-.592zm8.44 1.184h-1.206v1.185h1.206v-1.185zm-1.507-1.184c1.164 0 2.11-.93 2.11-2.073s-.946-2.073-2.11-2.073-2.11.93-2.11 2.073.946 2.073 2.11 2.073zm0-3.109c.582 0 1.055.465 1.055 1.036s-.473 1.036-1.055 1.036-1.055-.465-1.055-1.036.473-1.036 1.055-1.036zm8.515-1.629h2.261c.873 0 1.582-.664 1.582-1.481s-.71-1.481-1.582-1.481h-2.261c-.873 0-1.582.664-1.582 1.481s.71 1.481 1.582 1.481zm2.938-1.481c0 .35-.304.634-.678.634h-.678v-1.269h.678c.374 0 .678.285.678.635zm-2.938-.634h.678v1.269h-.678c-.374 0-.678-.285-.678-.634s.304-.635.678-.635zm0 6.853h2.261c.873 0 1.582-.797 1.582-1.777s-.71-1.777-1.582-1.777h-2.261c-.873 0-1.582.797-1.582 1.777s.71 1.777 1.582 1.777zm2.938-1.777c0 .42-.304.761-.678.761h-.678v-1.523h.678c.374 0 .678.342.678.761zm-2.938-.761h.678v1.523h-.678c-.374 0-.678-.342-.678-.761s.304-.761.678-.761zm0 6.684h2.261c.873 0 1.582-.797 1.582-1.777s-.71-1.777-1.582-1.777h-2.261c-.873 0-1.582.797-1.582 1.777s.71 1.777 1.582 1.777zm2.938-1.777c0 .42-.304.761-.678.761h-.678V22.62h.678c.374 0 .678.342.678.761zm-2.938-.761h.678v1.523h-.678c-.374 0-.678-.342-.678-.761s.304-.761.678-.761z"/>
    </symbol>
    <symbol id="icon-why-3" viewBox="0 0 32 32">
      <path fill="var(--color2, #2b7fff)" d="M29.687 10.326c-.253-.229-.559-.376-.883-.425s-.655.003-.954.15l-6.312 3.08a.215.215 0 0 1-.184.021.243.243 0 0 1-.142-.13l-3.688-7.287c-.15-.301-.37-.553-.638-.728s-.575-.268-.887-.268c-.312 0-.618.092-.887.268s-.489.427-.638.728l-3.687 7.287a.239.239 0 0 1-.142.13c-.03.01-.062.014-.094.01s-.062-.014-.09-.031l-6.313-3.08c-.298-.149-.628-.202-.953-.155s-.631.194-.883.423-.442.532-.546.873a2.112 2.112 0 0 0-.043 1.059l3.188 14.891c.054.252.154.489.293.697s.316.383.519.513a1.585 1.585 0 0 0 1.363.206 30.563 30.563 0 0 1 17.812-.014 1.602 1.602 0 0 0 1.367-.186 1.8 1.8 0 0 0 .524-.516c.141-.209.242-.447.297-.701l3.175-14.891c.079-.348.067-.713-.034-1.054s-.289-.643-.541-.871zm-.875 1.54-3.188 14.891a.321.321 0 0 1-.112.179.29.29 0 0 1-.2.028 31.912 31.912 0 0 0-18.625 0 .23.23 0 0 1-.197-.029.284.284 0 0 1-.116-.178L3.186 11.866a.324.324 0 0 1 .003-.124.288.288 0 0 1 .138-.189.235.235 0 0 1 .109-.03l.1.028 6.325 3.094c.399.198.851.222 1.266.069s.762-.472.972-.894l3.688-7.287a.26.26 0 0 1 .088-.106.22.22 0 0 1 .25 0 .248.248 0 0 1 .088.106L19.9 13.82c.21.422.557.742.972.894s.867.128 1.266-.069l6.325-3.094c.043-.021.09-.028.137-.021s.09.029.126.062c.037.032.064.075.08.124s.018.101.008.151zm-8.062 10.45c-.021.203-.109.391-.247.527s-.317.213-.503.215h-.075a35.646 35.646 0 0 0-7.85 0c-.197.023-.395-.041-.549-.177s-.254-.335-.276-.552c-.018-.218.043-.435.169-.605s.308-.278.506-.302a35.151 35.151 0 0 1 8.15 0c.196.024.375.131.501.297s.188.38.174.596z"/>
    </symbol>
    <symbol id="icon-menu" viewBox="0 0 32 32">
      <path d="M29.333 24.007c0 0.733-0.595 1.327-1.327 1.327h-10.68c-0.352 0-0.689-0.14-0.938-0.389s-0.389-0.586-0.389-0.938c0-0.352 0.14-0.689 0.389-0.938s0.586-0.389 0.938-0.389h10.68c0.733 0 1.327 0.593 1.327 1.327zM29.333 16c0 0.733-0.595 1.327-1.327 1.327h-24.013c-0.352 0-0.689-0.14-0.938-0.389s-0.389-0.586-0.389-0.938c0-0.352 0.14-0.689 0.389-0.938s0.586-0.389 0.938-0.389h24.013c0.733 0 1.327 0.595 1.327 1.327zM28.007 9.32c0.352 0 0.689-0.14 0.938-0.389s0.389-0.586 0.389-0.938c0-0.352-0.14-0.689-0.389-0.938s-0.586-0.389-0.938-0.389h-16.013c-0.174 0-0.347 0.034-0.508 0.101s-0.307 0.164-0.43 0.288c-0.123 0.123-0.221 0.269-0.288 0.43s-0.101 0.333-0.101 0.508c0 0.174 0.034 0.347 0.101 0.508s0.164 0.307 0.288 0.43c0.123 0.123 0.269 0.221 0.43 0.288s0.333 0.101 0.508 0.101h16.013z"></path>
    </symbol>
    <symbol id="icon-close" viewBox="0 0 24 24">
      <path stroke-linejoin="miter" stroke-linecap="round" stroke-miterlimit="4" stroke-width="2" d="M9 6l6 6 6-6M9 18l6-6 6 6"></path>
    </symbol>
  </defs>
</svg>
